HIERARCHY
ROOT Hips
{
	OFFSET	0	0	0
	CHANNELS 6  Xposition Yposition Zposition Xrotation Yrotation Zrotation
	JOINT Spine
	{
		OFFSET	0	6.22639	1.25326
		CHANNELS 3  Xrotation Yrotation Zrotation
		JOINT Spine1
		{
			OFFSET	0	10.6877	-1.90851
			CHANNELS 3  Xrotation Yrotation Zrotation
			JOINT Spine2
			{
				OFFSET	0	8.10164	0.868374
				CHANNELS 3  Xrotation Yrotation Zrotation
				JOINT Spine3
				{
					OFFSET	0	9.69525	2.88186
					CHANNELS 3  Xrotation Yrotation Zrotation
					JOINT Spine4
					{
						OFFSET	0	14.352	-1.46956
						CHANNELS 3  Xrotation Yrotation Zrotation
						JOINT Neck
						{
							OFFSET	0	6.85157	-4.79991
							CHANNELS 3  Xrotation Yrotation Zrotation
							JOINT Head
							{
								OFFSET	0	8.2257	-2.46198
								CHANNELS 3  Xrotation Yrotation Zrotation
								End Site
								{
									OFFSET	0	17.1575	-0.830203
								}
							}
						}
					}
					JOINT LeftShoulder
					{
						OFFSET	-4.12239	17.4438	-8.22569
						CHANNELS 3  Xrotation Yrotation Zrotation
						JOINT LeftArm
						{
							OFFSET	-8.97544	-2.46198	3.15861
							CHANNELS 3  Xrotation Yrotation Zrotation
							JOINT LeftForeArm
							{
								OFFSET	-28.8645	-1.31743	2.06032
								CHANNELS 3  Xrotation Yrotation Zrotation
								JOINT LeftHand
								{
									OFFSET	-23.6955	-1.63749	1.69136
									CHANNELS 3  Xrotation Yrotation Zrotation
									End Site
									{
										OFFSET	-8.64768	-0.597604	0.617222
									}
								}
							}
						}
					}
					JOINT RightShoulder
					{
						OFFSET	4.12239	17.4438	-8.22569
						CHANNELS 3  Xrotation Yrotation Zrotation
						JOINT RightArm
						{
							OFFSET	8.97544	-2.46198	3.15861
							CHANNELS 3  Xrotation Yrotation Zrotation
							JOINT RightForeArm
							{
								OFFSET	28.8645	-1.31743	2.06032
								CHANNELS 3  Xrotation Yrotation Zrotation
								JOINT RightHand
								{
									OFFSET	23.6955	-1.63749	1.69136
									CHANNELS 3  Xrotation Yrotation Zrotation
									End Site
									{
										OFFSET	8.64768	-0.597604	0.617222
									}
								}
							}
						}
					}
				}
			}
		}
	}
	JOINT LeftUpLeg
	{
		OFFSET	-8.47813	-3.1132	-0.626629
		CHANNELS 3  Xrotation Yrotation Zrotation
		JOINT LeftLeg
		{
			OFFSET	-1.88069	-36.8514	-0.576069
			CHANNELS 3  Xrotation Yrotation Zrotation
			JOINT LeftFoot
			{
				OFFSET	-1.83866	-33.8924	2.91475
				CHANNELS 3  Xrotation Yrotation Zrotation
				JOINT LeftToeBase
				{
					OFFSET	0	-4.18359	-11.1116
					CHANNELS 3  Xrotation Yrotation Zrotation
					End Site
					{
						OFFSET	0	-1.67344	-6.69374
					}
				}
			}
		}
	}
	JOINT RightUpLeg
	{
		OFFSET	8.47813	-3.1132	-0.626629
		CHANNELS 3  Xrotation Yrotation Zrotation
		JOINT RightLeg
		{
			OFFSET	1.88069	-36.8514	-0.576069
			CHANNELS 3  Xrotation Yrotation Zrotation
			JOINT RightFoot
			{
				OFFSET	1.83866	-33.8924	2.91475
				CHANNELS 3  Xrotation Yrotation Zrotation
				JOINT RightToeBase
				{
					OFFSET	0	-4.18359	-11.1116
					CHANNELS 3  Xrotation Yrotation Zrotation
					End Site
					{
						OFFSET	0	-1.67344	-6.69374
					}
				}
			}
		}
	}
}
MOTION
Frames: 8
Frame Time: 0.020409
 -58.23 75.7397 -228.018 35.7356 -67.8791 46.713 180 -179.99 179.009 171.754 -179.979 178.349 171.245 -179.937 178.349 172.981 -179.99 179.009 0.80134 -0.00461766 -0.330138 10.041 -4.49576 -3.72102 3.04339 -1.84515 -1.34552 170.721 177.272 162.105 7.70988 -20.6391 73.8018 160.529 -69.9215 159.8 -0 4.47571 7.14432 174.665 154.069 -168.35 166.601 175.814 106.605 39.9357 67.5082 -36.0448 -0 12.7307 4.46445 169.242 -176.156 161.218 148.546 164.004 179.636 29.1963 0.20507 8.00099 166.572 180 -180 14.1183 16.5694 -25.9218 140.49 160.72 179.802 7.03831 -0.0388649 -0.10406 175.22 180 -180
 -57.1029 75.5502 -228.724 38.6237 -68.9641 49.7616 180 -179.996 179.062 171.848 -179.993 178.436 171.34 -179.978 178.436 173.043 -179.996 179.062 0.835161 -0.00455913 -0.312751 9.9458 -5.14434 -5.14782 3.04396 -0.946197 -1.76735 170.269 176.675 161.295 6.94341 -21.2211 75.7645 161.171 -68.3889 160.619 -0 4.40957 7.73396 174.439 152.812 -167.85 165.859 174.708 106.918 36.4692 66.0742 -32.2746 -0 11.0923 3.301 165.796 -174.154 162.349 149.687 164.896 179.605 30.1927 0.188922 7.36765 166.574 180 -180 14.6996 14.9364 -24.6093 142.297 161.011 179.694 6.36686 -0.0261486 -0.0678588 175.34 180 -180
 -55.6344 75.3337 -229.525 41.3314 -70.1622 52.689 180 -179.99 179.101 171.981 -179.981 178.502 171.465 -179.942 178.502 173.107 -179.99 179.101 0.93692 -0.00489974 -0.299606 9.95259 -6.08609 -6.80039 3.09154 -0.154779 -2.2741 169.675 176.198 160.176 6.1049 -21.8462 76.6366 161.621 -66.9328 161.233 -0 4.30256 8.1542 174.449 152.093 -167.874 164.563 173.773 106.895 32.9078 64.2862 -28.4473 -0 9.55315 2.00403 162.689 -172.501 163.53 150.968 165.587 179.603 31.1353 0.180629 6.61227 166.579 180 -180 14.6256 13.1286 -23.0626 143.77 161.834 179.867 6.23432 -0.027237 0.233232 175.447 180 -180
 -54.1086 75.0989 -229.984 42.8923 -70.6546 54.178 180 -179.998 179.116 172.142 -179.996 178.526 171.618 -179.989 178.526 173.189 -179.998 179.116 1.0507 -0.0054055 -0.294732 9.99267 -6.72373 -7.9371 3.14254 0.428802 -2.62355 169.635 175.438 160.254 5.64212 -22.2676 77.5222 161.887 -65.6517 161.651 -0 4.22355 8.4379 174.615 152.127 -168.241 163.714 173.49 106.591 30.0145 62.5047 -25.2824 -0 8.03133 0.86748 160.084 -171.196 164.537 152.25 166.207 179.469 32.002 0.141613 5.78601 166.584 180 -180 14.4655 11.3843 -21.7249 146.305 163.171 179.961 5.44128 -0.0492081 0.594185 175.542 180 -180
 -53.0971 74.9414 -230.445 44.927 -71.429 56.3966 180 -179.996 179.115 172.306 -179.992 178.525 171.774 -179.975 178.525 173.277 -179.996 179.115 1.15351 -0.00593802 -0.294904 10.035 -7.16393 -8.66396 3.18357 0.766887 -2.85082 169.595 174.975 160.272 5.56028 -22.8072 78.6987 161.799 -65.0323 161.611 -0 4.24932 8.57998 174.607 152.682 -168.22 163.314 173.866 106.746 28.1388 61.2847 -23.3027 -0 6.59948 -0.112829 157.932 -170.384 165.305 153.789 166.474 179.419 32.7342 0.11255 4.93558 166.589 180 -180 14.1903 9.81853 -20.7214 149.363 165.016 179.985 4.37664 -0.032898 1.0475 175.623 180 -180
 -51.7933 74.838 -231.092 48.1521 -72.1304 59.8603 180 -179.991 179.113 172.462 -179.982 178.521 171.929 -179.947 178.521 173.378 -179.991 179.113 1.21476 -0.00626901 -0.295639 9.93218 -7.79357 -9.56739 3.19058 1.00835 -3.13675 169.629 175.291 160.272 4.98392 -23.2748 77.5049 161.487 -64.919 161.486 -0 4.30196 8.61691 174.703 153.132 -168.433 163.215 174.222 107.096 26.7424 60.3621 -21.9788 -0 5.4006 -1.2714 155.802 -169.844 166.354 155.169 166.72 179.418 33.2873 0.057911 4.2055 166.593 180 -180 14.6628 8.29402 -19.2475 152.588 167.665 -179.649 0.417139 0.0851246 1.65845 175.694 180 -180
 -50.5499 74.6804 -231.348 50.6366 -73.0005 62.1708 180 -179.984 179.105 172.606 -179.969 178.509 172.084 -179.906 178.509 173.51 -179.984 179.105 1.17758 -0.00613027 -0.298228 9.68091 -7.73325 -9.66846 3.11792 1.13113 -3.15141 169.829 175.09 160.721 5.0302 -23.4884 76.8466 161.366 -64.575 161.372 -0 4.26684 8.53734 175.204 153.203 -169.536 163.159 174.529 107.471 24.6531 58.5478 -19.7338 -0 4.15589 -2.29844 154.142 -169.371 167.28 156.867 166.696 179.383 33.4717 0.0453849 3.47427 166.597 180 -180 15.1607 6.86614 -18.0778 156.043 171.155 -179.17 176.634 179.95 -177.506 175.756 180 -180
 -49.5687 74.4121 -231.763 52.6944 -73.6158 63.9064 180 -179.994 179.054 172.726 -179.988 178.424 172.206 -179.964 178.424 173.593 -179.994 179.054 1.21044 -0.00666022 -0.315209 9.78909 -7.15215 -8.76288 3.11237 0.824521 -2.86974 170.199 174.721 161.544 4.97182 -24.5044 77.1905 160.919 -64.6963 160.883 -0 4.3823 8.66345 175.98 152.747 -171.242 162.76 175.035 108.502 21.8927 55.3962 -16.6256 -0 2.92648 -3.36374 152.498 -168.916 168.297 158.471 166.584 179.341 33.7587 0.0787809 2.67171 166.6 180 -180 15.5886 6.18848 -16.8865 159.086 175.801 -178.794 173.881 179.974 -176.343 175.804 180 -180
